<svg xmlns="http://www.w3.org/2000/svg" viewBox="0 0 3000 3000" width="3000" height="3000"><g transform="translate(450.0 1221.0) rotate(0.0 1050.0 721.5) scale(2.98431105047749 2.984735034956356)"><svg width="703.68" height="483.46" viewBox="0 0 703.68 483.46"><path d="M655.55 75.78C653.11 62.91 389.53 5.03 378.16 7.1s1.62 268.55 1.62 268.55l275.77 75.11z" fill="#fff"/><path d="M655.55 357.76c-.61 0-1.23-.08-1.84-.25L377.94 282.4c-2.92-.8-5-3.39-5.15-6.41-.03-.67-3.27-67.46-5.08-133.65-1.06-38.93-1.43-70.05-1.09-92.51.2-13.47.67-23.99 1.38-31.28.91-9.31 2.21-17.12 8.91-18.34 1.81-.33 5.57-1.01 50.44 8.08 27.58 5.59 62 13.14 94.45 20.74 26.09 6.1 63.38 15.15 92.9 23.58 42.97 12.27 46.7 16.45 47.73 21.88.08.43.12.87.12 1.3v274.98a7 7 0 0 1-7 7zm-269.02-87.53 262.02 71.37V78.81c-9.58-5.27-53.21-18.3-133.84-37.06-61.31-14.27-116.63-25.45-132.12-27.4-1.46 8.47-3.51 37.33-.68 135.29 1.53 52.88 3.86 104.55 4.61 120.6z" fill="#231f20"/><path d="M378.16 7.1C356.45 4 71.6 73.91 58.46 84.95c-5.19 96.18-5.87 190.71 0 282.83l321.32-92.14-1.62-268.55z" fill="#fff"/><path d="M58.46 374.78c-1.43 0-2.84-.44-4.03-1.28a6.987 6.987 0 0 1-2.95-5.28c-5.58-87.52-5.58-180.3 0-283.65.1-1.93 1-3.74 2.49-4.98 1.9-1.6 5.85-4.92 55.07-18.64 28.18-7.86 65.27-17.46 104.41-27.03C238.19 27.87 362.56-2.19 379.15.17c3.43.49 5.99 3.42 6.01 6.89l1.62 268.55a6.988 6.988 0 0 1-5.07 6.77L60.39 374.51c-.63.18-1.28.27-1.93.27zm6.78-285.56c-5.16 97.83-5.27 186.11-.33 269.43l307.84-88.27-1.54-256.06c-18.06 2.03-71.47 12.96-152.59 32.75C133.07 67.94 78.27 83.64 65.25 89.22z" fill="#231f20"/><path d="M58.46 84.95s227.84 79.87 230.46 98.21 0 293.31 0 293.31c-32.33-2.57-227.84-90.35-230.46-108.68s-7.86-261.88 0-282.83z" fill="#fff"/><path d="M288.91 483.46c-.18 0-.37 0-.56-.02-18.59-1.48-79.77-26.46-128.75-49.05-28.18-13-53.76-25.84-72.03-36.16-31.96-18.06-35.37-24.67-36.05-29.46-1.46-10.21-3.36-77.58-4-141.35-.86-86.14.61-134.9 4.37-144.93 1.34-3.56 5.28-5.41 8.87-4.15.57.2 57.73 20.26 114.47 42.31 33.4 12.98 60.15 24.1 79.5 33.07 36.63 16.97 40.34 23.14 41.1 28.44 2.66 18.64.18 283.12.07 294.36a7.016 7.016 0 0 1-2.27 5.1 7.02 7.02 0 0 1-4.72 1.83zM65.31 366.18c3.79 5.69 34.11 25.25 104.05 57.28 47.53 21.76 92.58 39.51 112.63 44.6.73-80.27 1.96-263.39.09-283.04-2.87-3.34-19.7-15.67-116.53-53.11-42.77-16.54-84.93-31.67-101.77-37.65-1.75 15.65-3.02 56.34-2.26 133.02.65 65.57 2.57 128.38 3.78 138.9zm-.18-.29z" fill="#231f20"/><path d="M58.46 84.95s227.84 79.87 230.46 98.21 0 293.31 0 293.31c-32.33-2.57-210.65-97.19-213.27-115.52s-25.04-255.04-17.19-276z" fill="currentColor"/><path d="M288.91 476.46c20.95-2.62 382.1-123.19 387.5-133.99 10.3-20.6-18.25-254.9-20.87-266.69S288.91 183.15 288.91 183.15c.84 18.28 0 293.31 0 293.31z" fill="currentColor"/><path d="M288.91 483.46c-.18 0-.37 0-.56-.02-18.59-1.48-79.77-26.46-128.75-49.05-28.18-13-53.76-25.84-72.03-36.16-31.96-18.06-35.37-24.67-36.05-29.46-1.46-10.21-3.36-77.58-4-141.35-.86-86.14.61-134.9 4.37-144.93 1.34-3.56 5.28-5.41 8.87-4.15.57.2 57.73 20.26 114.47 42.31 33.4 12.98 60.15 24.1 79.5 33.07 36.63 16.97 40.34 23.14 41.1 28.44 2.66 18.64.18 283.12.07 294.36a7.016 7.016 0 0 1-2.27 5.1 7.02 7.02 0 0 1-4.72 1.83zM65.31 366.18c3.79 5.69 34.11 25.25 104.05 57.28 47.53 21.76 92.58 39.51 112.63 44.6.73-80.27 1.96-263.39.09-283.04-2.87-3.34-19.7-15.67-116.53-53.11-42.77-16.54-84.93-31.67-101.77-37.65-1.75 15.65-3.02 56.34-2.26 133.02.65 65.57 2.57 128.38 3.78 138.9zm-.18-.29z" fill="#231f20"/><path d="M288.91 483.46c-1.7 0-3.35-.62-4.64-1.76a6.966 6.966 0 0 1-2.36-5.26c0-2.75.83-275.06 0-292.96-.14-3.14 1.83-6 4.81-6.97.88-.29 89.28-29.21 178.19-56.82C647.58 62.96 653.96 66.6 658.62 69.25c1.94 1.11 3.27 2.89 3.75 5.02 1.62 7.3 3.5 79.89 4.09 139.92 1.32 133.04-3.02 138.11-5.61 141.13-1.77 2.06-3.96 4.62-60.58 25.16-31.18 11.31-74.11 26.3-120.88 42.21-69.15 23.52-176.72 59.1-189.61 60.72-.29.04-.58.05-.87.05zm7.12-295.27c.56 37.92.04 234.32-.09 279.42 23.97-6.63 94.54-29.5 174.96-56.82 110.21-37.44 168.74-59.26 178.91-64.62 1.86-8.6 3.55-48.17 2.63-135.32-.62-58.17-2.14-111.81-3.26-128.63-11.85 1.59-51.94 10.94-185.41 52.48-74.95 23.32-148.34 47.17-167.73 53.49z" fill="#231f20"/><path d="M58.46 84.95c-11.07 5.88-53.45 77.2-51.38 84.43 2.07 7.24 222.24 105.43 229.47 101.3 7.24-4.13 52.37-87.53 52.37-87.53-71.66-40.12-148.39-72.99-230.46-98.21z" fill="#fff"/><path d="M235.98 277.83c-2.82 0-7.04-1.1-15-3.89-7.36-2.58-17.52-6.5-30.19-11.66-31.71-12.91-77.9-33.1-117.69-51.44C2.32 178.22 1.45 175.17.34 171.31c-.73-2.55-2.43-8.51 21.5-48.26 8.78-14.59 24.8-39.75 33.33-44.28a7.035 7.035 0 0 1 5.34-.51c81.45 25.03 159.45 58.27 231.82 98.79a7.001 7.001 0 0 1 2.74 9.44c-.11.21-11.46 21.16-23.55 42.35-25.32 44.39-29.04 46.52-31.5 47.92-1.17.67-2.35 1.06-4.04 1.06zm0-14.01zM14.71 166.54c10.54 6.45 50.68 25.92 107.77 51.25 61.34 27.22 100.91 42.92 111.45 45.62 6.75-8.54 27.09-43.7 45.53-77.5-68.76-37.95-142.55-69.27-219.53-93.18-4.01 4.1-12.65 15.42-24.91 35.59-11.45 18.83-18.18 32.45-20.31 38.22z" fill="#231f20"/><path d="M288.91 183.16c10.69 12.07 57.89 98.1 66.5 97.55 8.62-.55 338.01-110.29 341.11-116.49s-40.98-88.43-40.98-88.43c-105.8 18.14-341.48 83.26-366.63 107.37z" fill="#fff"/><path d="M355.26 287.71c-7.92 0-15.73-10.45-48.62-64.21-9.51-15.54-19.34-31.61-22.97-35.71a6.99 6.99 0 0 1 .4-9.69c16.74-16.04 104.92-42.97 155.99-57.6 78.61-22.51 162.73-42.78 214.3-51.62 2.97-.5 5.93.94 7.35 3.59.11.21 11.19 20.89 21.75 42.08 6.23 12.5 11.07 22.75 14.39 30.46 6.37 14.79 6.67 18.85 4.93 22.33-1.66 3.31-2.34 4.69-57.31 24.21-37 13.14-83.06 28.82-115.2 39.66-43 14.51-167.35 56.03-174.42 56.48-.2.01-.4.02-.6.02zm2.31-13.48zm-58.84-89.62c4.54 6.62 11.03 17.18 19.85 31.59 11.72 19.16 30.88 50.48 37.85 57.11 27.99-7.58 297.42-97.5 332.5-112.89-3.73-11.49-20.52-45.54-37.17-76.86-105.03 18.71-312.97 76.88-353.03 101.05z" fill="#231f20"/></svg></g><g transform="translate(1140.0 474.0) rotate(0.0 372.0 513.0) scale(3.0025424754832724 3.002985424105836)"><svg width="247.79" height="341.66" viewBox="0 0 247.79 341.66"><path d="M197.31 341.66c-1.95 0-3.89-.81-5.27-2.39a7.008 7.008 0 0 1 .66-9.88c48.92-42.76 47.43-106.86 29.72-152.6-13.87-35.82-37.65-63.79-65.1-78.85-5.55 18.19-18.58 33.85-36.26 41.22-24.22 10.09-45.23 1.45-55.87-9.01-10.02-9.86-13.51-22.88-9.1-33.98 3.51-8.82 15.12-23.75 53.48-24.54 12.37-.26 24.71 1.77 36.67 5.97-.03-3.79-.48-7.59-1.4-11.31C135.43 27.8 84.12 8.75 7.6 15.32 3.74 15.66.36 12.8.03 8.95A6.992 6.992 0 0 1 6.4 1.37c45.48-3.91 82.09.51 108.83 13.11 29.29 13.81 39.67 33.98 43.22 48.47 1.67 6.81 2.17 13.74 1.63 20.54 8.85 4.46 17.44 10.16 25.63 17.03 21.2 17.79 38.88 43.08 49.77 71.21 19.42 50.16 20.8 120.68-33.57 168.19a6.979 6.979 0 0 1-4.6 1.73zM111.6 85.61c-.58 0-1.15 0-1.73.02-22.12.46-36.97 6.18-40.76 15.71-2.29 5.77-.03 12.99 5.9 18.83 7.58 7.46 22.79 13.53 40.67 6.07 14.17-5.9 24.64-19.2 28.71-34.32-10.66-4.11-21.7-6.3-32.79-6.3z" fill="#231f20"/></svg></g><g transform="translate(810.0 345.0) rotate(0.0 108.0 157.5) scale(2.807747302742753 2.8597367226509305)"><svg width="76.93" height="110.15" viewBox="0 0 76.93 110.15"><path d="M7.98 56.74c9.73 21.63 67.51 15.47 61.52-5.41C62.05 25.38-.68 37.5 7.98 56.74z" fill="#231f20"/><path d="M38.34 77.32c-15.36 0-31.08-5.12-36.74-17.71-2.5-5.56-1.67-11.6 2.28-16.56C13 31.59 36.4 27.32 52.54 30.53c12.5 2.48 20.91 9.19 23.69 18.87 2.3 8.03-.81 18.64-16.44 24.38-6.19 2.27-13.77 3.55-21.44 3.55zM14.36 53.87c4.31 9.57 26.52 11.92 40.6 6.76 2.7-.99 8.86-3.69 7.81-7.37-1.62-5.63-7.94-8-12.97-9-13.49-2.68-30.5 1.89-34.97 7.5-.9 1.13-.71 1.56-.47 2.1z" fill="#231f20"/><path d="M7.98 56.74C2.57 31.87 20.45 7 38.55 7c29.42 0-4.61 46.37-30.57 49.74z" fill="#fff"/><path d="M7.97 63.74c-3.25 0-6.13-2.26-6.83-5.51-3.29-15.13.62-31.46 10.46-43.67C19.06 5.31 28.88 0 38.55 0c16.14 0 18.1 11.05 18.32 14.44.55 8.45-5.21 19.79-15.39 30.33-10.31 10.67-22.19 17.57-32.6 18.92-.3.04-.61.06-.91.06zM38.55 14c-5.41 0-11.26 3.4-16.04 9.34-5.5 6.83-8.51 15.7-8.49 24.41 10.56-4.64 21.88-15.82 26.72-25.29 2.51-4.9 2.26-7.3 2.05-7.68s-.93-.77-4.25-.77z" fill="#231f20"/><path d="M7.98 56.74c1.08 25.95 22.17 54.41 37.28 44.33 33.01-22-37.28-44.33-37.28-44.33z" fill="#fff"/><path d="M38.58 110.15c-3.3 0-6.71-.86-10.08-2.57C14.19 100.3 1.85 77.62.99 57.03a7.01 7.01 0 0 1 2.74-5.85 6.993 6.993 0 0 1 6.37-1.11c7.99 2.54 47.99 16.21 50.81 36.21.75 5.33-.68 13.23-11.77 20.62-3.25 2.17-6.84 3.26-10.56 3.26zM16.64 67.32c3.4 13 11.26 24.25 18.2 27.78 3.39 1.73 5.27.98 6.53.14 2.27-1.52 6.03-4.44 5.67-7.02-.84-5.96-14.93-14.61-30.4-20.91z" fill="#231f20"/></svg></g></svg>
